<svg width="120" height="38" viewBox="0 0 120 38" fill="none" xmlns="http://www.w3.org/2000/svg">
<ellipse cx="19" cy="19" rx="19" ry="19" fill="url(#paint0_linear_299_1302)"/>
<mask id="mask0_299_1302" style="mask-type:alpha" maskUnits="userSpaceOnUse" x="0" y="0" width="38" height="38">
<ellipse cx="19" cy="19" rx="19" ry="19" fill="url(#paint1_linear_299_1302)"/>
</mask>
<g mask="url(#mask0_299_1302)">
<g style="mix-blend-mode:plus-lighter" opacity="0.4" filter="url(#filter0_f_299_1302)">
<ellipse cx="4.79194" cy="3.99451" rx="10.9724" ry="4.60606" transform="rotate(-46.0344 4.79194 3.99451)" fill="white"/>
</g>
<g style="mix-blend-mode:plus-lighter" opacity="0.5" filter="url(#filter1_f_299_1302)">
<ellipse cx="40.0143" cy="25.4295" rx="6.81313" ry="15.6414" fill="#00FFE0"/>
</g>
</g>
<path d="M7.17145 33.868C6.04798 32.973 5.02824 31.9532 4.13316 30.8297L8.21659 24.3134C8.56091 23.764 8.56091 23.0661 8.21659 22.5166L2.9478 14.1087C1.99372 12.5862 3.75736 10.8226 5.27987 11.7766L13.6878 17.0454C14.2372 17.3897 14.9351 17.3897 15.4846 17.0454L23.8925 11.7766C25.415 10.8226 27.1786 12.5862 26.2245 14.1087L20.9558 22.5166C20.6114 23.0661 20.6114 23.764 20.9558 24.3134L26.2245 32.7213C27.1786 34.2438 25.415 36.0075 23.8925 35.0534L15.4846 29.7846C14.9351 29.4403 14.2372 29.4403 13.6878 29.7846L7.17145 33.868Z" fill="url(#paint2_radial_299_1302)"/>
<path d="M24.7301 9.10436C25.192 9.3938 25.727 8.85876 25.4376 8.39688L23.8392 5.84616C23.7347 5.67948 23.7347 5.46775 23.8392 5.30106L25.4376 2.75035C25.727 2.28846 25.192 1.75343 24.7301 2.04287L22.1794 3.64127C22.0127 3.74572 21.801 3.74572 21.6343 3.64127L19.0836 2.04287C18.6217 1.75343 18.0867 2.28846 18.3761 2.75035L19.9745 5.30106C20.079 5.46775 20.079 5.67948 19.9745 5.84616L18.3761 8.39688C18.0867 8.85876 18.6217 9.3938 19.0836 9.10436L21.6343 7.50596C21.801 7.40151 22.0127 7.40151 22.1794 7.50596L24.7301 9.10436Z" fill="url(#paint3_radial_299_1302)"/>
<path d="M32.4582 11.7789C32.5976 12.0013 32.34 12.2589 32.1176 12.1195L30.8895 11.3499C30.8092 11.2996 30.7073 11.2996 30.627 11.3499L29.3989 12.1195C29.1765 12.2589 28.9189 12.0013 29.0582 11.7789L29.8278 10.5507C29.8781 10.4705 29.8781 10.3685 29.8278 10.2883L29.0582 9.06017C28.9189 8.83778 29.1765 8.58017 29.3989 8.71953L30.627 9.48913C30.7073 9.53942 30.8092 9.53942 30.8895 9.48913L32.1176 8.71953C32.34 8.58017 32.5976 8.83778 32.4582 9.06017L31.6886 10.2883C31.6383 10.3685 31.6383 10.4705 31.6886 10.5507L32.4582 11.7789Z" fill="url(#paint4_radial_299_1302)"/>
<path d="M66.0486 21.5116C65.8774 22.385 65.719 23.3654 65.5734 24.4529C65.4278 25.5404 65.2908 26.5465 65.1624 27.4713C65.0596 27.4713 64.9355 27.4713 64.7899 27.4713C64.6443 27.4713 64.4517 27.4713 64.2119 27.4713C61.5746 27.4456 59.0571 27.2829 56.6595 26.9832C54.2705 26.6835 52.2625 26.0712 50.6356 25.1465C49.197 24.2816 48.1353 23.3269 47.4502 22.2822C46.7738 21.2375 46.4355 20.0602 46.4355 18.7501C46.4355 17.4571 46.7781 16.2583 47.4631 15.1537C48.1481 14.0405 49.1756 13.1029 50.5457 12.3408C52.1983 11.416 54.2148 10.7867 56.5953 10.4527C58.9843 10.1102 61.4119 9.92181 63.878 9.88756C64.0492 9.88756 64.229 9.88756 64.4174 9.88756C64.6058 9.88756 64.7599 9.88756 64.8798 9.88756C64.9569 10.4013 65.0725 11.2319 65.2266 12.3793C65.3807 13.5267 65.5648 14.7041 65.7789 15.9115C65.6162 15.9115 65.4364 15.9115 65.2394 15.9115C65.0425 15.9115 64.867 15.9115 64.7128 15.9115C63.7966 15.9286 62.7648 15.9586 61.6174 16.0014C60.47 16.0356 59.4167 16.117 58.4577 16.2454C57.0705 16.4338 55.9659 16.7078 55.1439 17.0675C54.3304 17.4185 53.9237 17.9666 53.9237 18.7115C53.9237 19.4137 54.3433 19.9531 55.1824 20.3299C56.0216 20.6981 57.0919 20.9635 58.3935 21.1262C59.618 21.2804 60.714 21.3831 61.6816 21.4345C62.6578 21.4773 63.7195 21.4987 64.867 21.4987C65.141 21.4987 65.3722 21.503 65.5605 21.5116C65.7489 21.5201 65.9116 21.5201 66.0486 21.5116Z" fill="white"/>
<path d="M85.6745 27.2529C85.1608 27.2529 83.6666 27.2529 81.1919 27.2529C78.7258 27.2444 77.1075 27.2401 76.3368 27.2401C75.1894 27.2401 73.8921 27.2444 72.445 27.2529C70.9979 27.2529 69.615 27.2529 68.2964 27.2529C68.2964 25.9257 68.2964 24.3844 68.2964 22.629C68.3049 20.8651 68.3092 19.4693 68.3092 18.4418C68.3092 16.6693 68.3049 14.9225 68.2964 13.2014C68.2964 11.4802 68.2964 10.4313 68.2964 10.0545H75.5276C75.5276 11.3475 75.5233 12.5163 75.5148 13.561C75.5148 14.6057 75.5148 15.6503 75.5148 16.695C75.5148 18.5874 75.5148 19.7862 75.5148 20.2914C75.5233 20.788 75.5276 21.1648 75.5276 21.4216C76.2298 21.4216 76.9362 21.4259 77.6469 21.4345C78.3576 21.4345 78.8757 21.4345 79.2011 21.4345C79.869 21.4345 81.0121 21.4302 82.6305 21.4216C84.2574 21.4131 85.2721 21.4088 85.6745 21.4088V27.2529Z" fill="white"/>
<path d="M94.3444 27.2529H87.2929C87.2843 26.7563 87.2843 25.6517 87.2929 23.9391C87.3015 22.2266 87.3057 20.2571 87.3057 18.0308C87.3057 17.0118 87.3015 15.7873 87.2929 14.3573C87.2929 12.9188 87.2929 11.4845 87.2929 10.0545H94.3444C94.3444 11.1591 94.3401 12.4179 94.3315 13.8307C94.3315 15.235 94.3315 16.635 94.3315 18.0308C94.3315 20.2229 94.3358 22.0425 94.3444 23.4896C94.3529 24.9367 94.3529 26.1911 94.3444 27.2529Z" fill="white"/>
<path d="M119.416 25.4676L113.02 27.8694C112.446 27.2187 111.667 26.3838 110.682 25.3648C109.706 24.3458 108.811 23.4382 107.998 22.6418H107.908C106.992 23.481 105.891 24.5043 104.607 25.7116C103.322 26.9104 102.53 27.6554 102.231 27.9465L95.9499 25.6089C96.4294 25.1465 97.367 24.2302 98.7628 22.8602C100.167 21.4816 101.464 20.1843 102.655 18.9684V18.9042C101.721 17.928 100.548 16.6864 99.1352 15.1794C97.7224 13.6638 96.7548 12.6062 96.2325 12.0069L102.68 9.30957C103.108 9.82334 103.823 10.6325 104.825 11.7371C105.827 12.8332 106.829 13.9035 107.831 14.9482H107.946C108.571 14.3573 109.436 13.4112 110.541 12.1096C111.645 10.7995 112.33 9.92181 112.596 9.47654L119.172 11.8527C118.735 12.3494 117.832 13.3298 116.462 14.794C115.101 16.2583 113.94 17.4956 112.981 18.506V18.5702C114.103 19.8118 115.212 21.0149 116.308 22.1795C117.413 23.344 118.449 24.44 119.416 25.4676Z" fill="white"/>
<defs>
<filter id="filter0_f_299_1302" x="-14.6838" y="-15.6942" width="38.9515" height="39.3774" filterUnits="userSpaceOnUse" color-interpolation-filters="sRGB">
<feFlood flood-opacity="0" result="BackgroundImageFix"/>
<feBlend mode="normal" in="SourceGraphic" in2="BackgroundImageFix" result="shape"/>
<feGaussianBlur stdDeviation="5.5831" result="effect1_foregroundBlur_299_1302"/>
</filter>
<filter id="filter1_f_299_1302" x="22.035" y="-1.37812" width="35.9584" height="53.6152" filterUnits="userSpaceOnUse" color-interpolation-filters="sRGB">
<feFlood flood-opacity="0" result="BackgroundImageFix"/>
<feBlend mode="normal" in="SourceGraphic" in2="BackgroundImageFix" result="shape"/>
<feGaussianBlur stdDeviation="5.5831" result="effect1_foregroundBlur_299_1302"/>
</filter>
<linearGradient id="paint0_linear_299_1302" x1="19" y1="0" x2="19" y2="38" gradientUnits="userSpaceOnUse">
<stop stop-color="#FF5627"/>
<stop offset="1" stop-color="#F5F502"/>
</linearGradient>
<linearGradient id="paint1_linear_299_1302" x1="19" y1="0" x2="19" y2="38" gradientUnits="userSpaceOnUse">
<stop stop-color="#FF5627"/>
<stop offset="1" stop-color="#F5F502"/>
</linearGradient>
<radialGradient id="paint2_radial_299_1302" cx="0" cy="0" r="1" gradientUnits="userSpaceOnUse" gradientTransform="translate(5.47143 3.55008) rotate(52.1957) scale(34.1278 30.5039)">
<stop stop-color="#454545"/>
<stop offset="1"/>
</radialGradient>
<radialGradient id="paint3_radial_299_1302" cx="0" cy="0" r="1" gradientUnits="userSpaceOnUse" gradientTransform="translate(5.47143 3.55008) rotate(52.1957) scale(34.1278 30.5039)">
<stop stop-color="#454545"/>
<stop offset="1"/>
</radialGradient>
<radialGradient id="paint4_radial_299_1302" cx="0" cy="0" r="1" gradientUnits="userSpaceOnUse" gradientTransform="translate(5.47143 3.55008) rotate(52.1957) scale(34.1278 30.5039)">
<stop stop-color="#454545"/>
<stop offset="1"/>
</radialGradient>
</defs>
</svg>
