<?xml version="1.0" standalone="no"?>
<!DOCTYPE svg PUBLIC "-//W3C//DTD SVG 20010904//EN"
 "http://www.w3.org/TR/2001/REC-SVG-20010904/DTD/svg10.dtd">
<svg version="1.0" xmlns="http://www.w3.org/2000/svg"
 width="512.000000pt" height="512.000000pt" viewBox="0 0 512.000000 512.000000"
 preserveAspectRatio="xMidYMid meet">
<metadata>
Created by potrace 1.14, written by Peter Selinger 2001-2017
</metadata>
<g transform="translate(0.000000,512.000000) scale(0.100000,-0.100000)"
fill="#000000" stroke="none">
<path d="M2497 5114 c-1 -1 -51 -4 -112 -8 -306 -17 -645 -105 -913 -236 -45
-22 -85 -40 -88 -40 -3 0 -62 -34 -132 -77 -115 -69 -260 -172 -351 -249 -73
-62 -249 -243 -306 -314 -33 -41 -66 -82 -74 -90 -25 -25 -156 -230 -203 -315
-102 -186 -202 -447 -243 -635 -21 -94 -34 -164 -40 -210 -4 -30 -9 -64 -11
-75 -21 -110 -20 -543 1 -608 2 -6 6 -34 9 -62 40 -364 220 -807 460 -1134 34
-47 67 -93 72 -102 46 -82 302 -332 424 -415 30 -20 57 -40 60 -44 8 -11 170
-114 250 -159 41 -24 82 -47 90 -51 171 -99 552 -223 785 -255 22 -3 54 -7 70
-10 121 -18 358 -23 514 -11 100 8 121 11 266 37 96 17 148 29 290 69 127 35
401 157 560 249 76 44 282 194 350 253 100 89 237 229 305 313 36 44 67 82 71
85 3 3 19 26 36 52 17 26 40 59 51 75 10 15 32 48 49 73 27 41 148 265 152
282 0 5 12 33 26 64 14 31 25 62 25 68 0 7 4 16 9 21 21 23 111 347 127 455 3
19 10 60 15 90 27 152 30 539 5 680 -3 14 -7 43 -10 65 -28 216 -119 507 -227
726 -285 581 -759 1022 -1352 1260 -98 39 -301 104 -358 114 -16 3 -57 12 -90
19 -33 8 -63 15 -67 15 -10 1 -91 11 -127 17 -62 9 -361 24 -368 18z"/>
</g>
</svg>
