<svg width="28" height="28" viewBox="0 0 28 28" fill="none" xmlns="http://www.w3.org/2000/svg">
<path d="M22.4815 6.21822C20.9298 5.49489 19.2498 4.96989 17.4998 4.66656C17.4845 4.66607 17.4692 4.66895 17.4551 4.67499C17.441 4.68104 17.4284 4.69011 17.4181 4.70156C17.2081 5.08656 16.9631 5.58822 16.7998 5.97322C14.9436 5.69322 13.056 5.69322 11.1998 5.97322C11.0365 5.57656 10.7915 5.08656 10.5698 4.70156C10.5581 4.67822 10.5231 4.66656 10.4881 4.66656C8.73814 4.96989 7.06981 5.49489 5.50648 6.21822C5.49481 6.21822 5.48314 6.22989 5.47148 6.24156C2.29814 10.9899 1.42314 15.6099 1.85481 20.1832C1.85481 20.2066 1.86648 20.2299 1.88981 20.2416C3.98981 21.7816 6.00814 22.7149 8.00315 23.3332C8.03815 23.3449 8.07314 23.3332 8.08481 23.3099C8.55148 22.6682 8.97148 21.9916 9.33315 21.2799C9.35648 21.2332 9.33315 21.1866 9.28648 21.1749C8.62148 20.9182 7.99148 20.6149 7.37315 20.2649C7.32648 20.2416 7.32648 20.1716 7.36148 20.1366C7.48981 20.0432 7.61814 19.9382 7.74648 19.8449C7.76981 19.8216 7.80481 19.8216 7.82815 19.8332C11.8415 21.6649 16.1698 21.6649 20.1365 19.8332C20.1598 19.8216 20.1948 19.8216 20.2181 19.8449C20.3465 19.9499 20.4748 20.0432 20.6031 20.1482C20.6498 20.1832 20.6498 20.2532 20.5915 20.2766C19.9848 20.6382 19.3431 20.9299 18.6781 21.1866C18.6315 21.1982 18.6198 21.2566 18.6315 21.2916C19.0048 22.0032 19.4248 22.6799 19.8798 23.3216C19.9148 23.3332 19.9498 23.3449 19.9848 23.3332C21.9915 22.7149 24.0098 21.7816 26.1098 20.2416C26.1331 20.2299 26.1448 20.2066 26.1448 20.1832C26.6581 14.8982 25.2931 10.3132 22.5281 6.24156C22.5165 6.22989 22.5048 6.21822 22.4815 6.21822ZM9.93981 17.3949C8.73815 17.3949 7.73481 16.2866 7.73481 14.9216C7.73481 13.5566 8.71481 12.4482 9.93981 12.4482C11.1765 12.4482 12.1565 13.5682 12.1448 14.9216C12.1448 16.2866 11.1648 17.3949 9.93981 17.3949ZM18.0715 17.3949C16.8698 17.3949 15.8665 16.2866 15.8665 14.9216C15.8665 13.5566 16.8465 12.4482 18.0715 12.4482C19.3081 12.4482 20.2881 13.5682 20.2765 14.9216C20.2765 16.2866 19.3081 17.3949 18.0715 17.3949Z" fill="white"/>
</svg>
