<svg width="28" height="28" viewBox="0 0 28 28" fill="none" xmlns="http://www.w3.org/2000/svg">
<path d="M13.9997 2.33325C7.55967 2.33325 2.33301 7.55992 2.33301 13.9999C2.33301 20.4399 7.55967 25.6666 13.9997 25.6666C20.4397 25.6666 25.6663 20.4399 25.6663 13.9999C25.6663 7.55992 20.4397 2.33325 13.9997 2.33325ZM19.413 10.2666C19.238 12.1099 18.4797 16.5899 18.0947 18.6549C17.9313 19.5299 17.6047 19.8216 17.3013 19.8566C16.6247 19.9149 16.1113 19.4132 15.458 18.9816C14.4313 18.3049 13.848 17.8849 12.8563 17.2316C11.7013 16.4733 12.448 16.0533 13.113 15.3766C13.288 15.2016 16.2747 12.4833 16.333 12.2383C16.3411 12.2011 16.34 12.1626 16.3299 12.126C16.3197 12.0894 16.3008 12.0559 16.2747 12.0283C16.2047 11.9699 16.1113 11.9933 16.0297 12.0049C15.9247 12.0283 14.2913 13.1133 11.1063 15.2599C10.6397 15.5749 10.2197 15.7382 9.84634 15.7266C9.42634 15.7149 8.63301 15.4932 8.03801 15.2949C7.30301 15.0616 6.73134 14.9333 6.77801 14.5249C6.80134 14.3149 7.09301 14.1049 7.64134 13.8833C11.048 12.4016 13.3113 11.4216 14.443 10.9549C17.6863 9.60158 18.3513 9.36825 18.7947 9.36825C18.888 9.36825 19.1097 9.39158 19.2497 9.50825C19.3663 9.60158 19.4013 9.72992 19.413 9.82325C19.4013 9.89325 19.4247 10.1033 19.413 10.2666Z" fill="white"/>
</svg>
