<svg width="28" height="28" viewBox="0 0 28 28" fill="none" xmlns="http://www.w3.org/2000/svg">
<path d="M26.2035 7.00008C25.3052 7.40841 24.3369 7.67675 23.3335 7.80508C24.3602 7.18675 25.1535 6.20675 25.5269 5.02841C24.5585 5.61175 23.4852 6.02008 22.3535 6.25341C21.4319 5.25008 20.1369 4.66675 18.6669 4.66675C15.9252 4.66675 13.6852 6.90675 13.6852 9.67175C13.6852 10.0684 13.7319 10.4534 13.8135 10.8151C9.66021 10.6051 5.96188 8.61008 3.50021 5.58841C3.06854 6.32341 2.82354 7.18675 2.82354 8.09675C2.82354 9.83508 3.69854 11.3751 5.05188 12.2501C4.22354 12.2501 3.45354 12.0167 2.77688 11.6667V11.7017C2.77688 14.1284 4.50354 16.1584 6.79021 16.6134C6.05606 16.8143 5.28532 16.8423 4.53854 16.6951C4.85542 17.6896 5.476 18.5599 6.31306 19.1835C7.15012 19.8071 8.16156 20.1527 9.20521 20.1717C7.43611 21.5723 5.2432 22.3293 2.98688 22.3184C2.59021 22.3184 2.19354 22.2951 1.79688 22.2484C4.01354 23.6717 6.65021 24.5001 9.47354 24.5001C18.6669 24.5001 23.7185 16.8701 23.7185 10.2551C23.7185 10.0334 23.7185 9.82341 23.7069 9.60175C24.6869 8.90175 25.5269 8.01508 26.2035 7.00008Z" fill="white"/>
</svg>
