<svg width="28" height="28" viewBox="0 0 28 28" fill="none" xmlns="http://www.w3.org/2000/svg">
<path d="M11.6663 17.4999L17.7213 13.9999L11.6663 10.4999V17.4999ZM25.153 8.36492C25.3047 8.91325 25.4097 9.64825 25.4797 10.5816C25.5613 11.5149 25.5963 12.3199 25.5963 13.0199L25.6663 13.9999C25.6663 16.5549 25.4797 18.4332 25.153 19.6349C24.8613 20.6849 24.1847 21.3616 23.1347 21.6532C22.5863 21.8049 21.583 21.9099 20.043 21.9799C18.5263 22.0616 17.138 22.0966 15.8547 22.0966L13.9997 22.1666C9.11134 22.1666 6.06634 21.9799 4.86467 21.6532C3.81467 21.3616 3.13801 20.6849 2.84634 19.6349C2.69467 19.0866 2.58967 18.3516 2.51967 17.4182C2.43801 16.4849 2.40301 15.6799 2.40301 14.9799L2.33301 13.9999C2.33301 11.4449 2.51967 9.56658 2.84634 8.36492C3.13801 7.31492 3.81467 6.63825 4.86467 6.34659C5.41301 6.19492 6.41634 6.08992 7.95634 6.01992C9.47301 5.93825 10.8613 5.90325 12.1447 5.90325L13.9997 5.83325C18.888 5.83325 21.933 6.01992 23.1347 6.34659C24.1847 6.63825 24.8613 7.31492 25.153 8.36492Z" fill="white"/>
</svg>
