<svg width="51" height="50" viewBox="0 0 51 50" fill="none" xmlns="http://www.w3.org/2000/svg">
<rect x="0.5" width="50" height="50" rx="12" fill="#6DDD63"/>
<path d="M23.799 22.1169L21.5337 27.3751C21.4657 27.5328 21.3819 27.6826 21.2832 27.8219L19.7572 29.9824C19.5891 30.22 19.4642 30.4868 19.3884 30.7696C19.3445 30.9337 19.182 31.0325 19.0251 30.9904L13.5155 29.5141C13.3757 29.4766 13.2876 29.3383 13.3021 29.1879C13.3442 28.7544 13.2709 28.3169 13.0866 27.9247L11.1107 23.7207C10.8277 23.2042 11.0063 22.5377 11.5097 22.2313C12.013 21.9255 12.6502 22.0963 12.9337 22.6129L13.737 24.0792L14.8321 17.7793C14.9605 17.1671 15.5556 16.7821 16.1334 16.9369C16.6663 17.0797 16.99 17.6323 16.8714 18.1973L15.9133 24.0459L17.7795 17.0809C17.9377 16.4905 18.5326 16.1168 19.094 16.2793C19.6385 16.4366 19.9534 17.0222 19.7994 17.5969L17.9272 24.5843L20.0407 18.828C20.2194 18.2786 20.7769 17.9609 21.3103 18.1038C21.8876 18.2585 22.2102 18.8883 22.0166 19.4824L19.9403 25.1237L21.8744 21.2428C22.0994 20.761 22.6198 20.5067 23.1114 20.6384C23.7284 20.8037 24.0517 21.4991 23.7991 22.1164L23.799 22.1169ZM19.7826 34.1098L20.0904 32.961C20.2605 32.3264 19.9066 31.6805 19.2999 31.5179L13.0764 29.8502C12.4696 29.6877 11.8403 30.0701 11.6702 30.7047L11.3624 31.8535C11.1924 32.4881 11.5462 33.134 12.153 33.2966L18.3765 34.9643C18.9832 35.1269 19.6126 34.7444 19.7826 34.1098Z" fill="white"/>
<path d="M27.6932 22.1169L29.9585 27.3751C30.0265 27.5328 30.1103 27.6826 30.209 27.8219L31.735 29.9824C31.9031 30.22 32.028 30.4868 32.1038 30.7696C32.1477 30.9337 32.3102 31.0325 32.4671 30.9904L37.9767 29.5141C38.1165 29.4766 38.2046 29.3383 38.1901 29.1879C38.148 28.7544 38.2213 28.3169 38.4055 27.9247L40.3815 23.7207C40.6644 23.2042 40.4859 22.5377 39.9825 22.2313C39.4792 21.9255 38.8419 22.0963 38.5585 22.6129L37.7552 24.0792L36.6601 17.7793C36.5317 17.1671 35.9366 16.7821 35.3588 16.9369C34.8259 17.0797 34.5022 17.6323 34.6208 18.1973L35.5789 24.0459L33.7127 17.0809C33.5545 16.4905 32.9596 16.1168 32.3982 16.2793C31.8537 16.4366 31.5388 17.0222 31.6928 17.5969L33.565 24.5843L31.4515 18.828C31.2727 18.2786 30.7152 17.9609 30.1819 18.1038C29.6045 18.2585 29.2819 18.8883 29.4756 19.4824L31.5519 25.1237L29.6178 21.2428C29.3928 20.761 28.8724 20.5067 28.3808 20.6384C27.7638 20.8037 27.4404 21.4991 27.6931 22.1164L27.6932 22.1169ZM31.7095 34.1098L31.4017 32.961C31.2317 32.3264 31.5856 31.6805 32.1923 31.5179L38.4158 29.8502C39.0225 29.6877 39.6519 30.0701 39.822 30.7047L40.1298 31.8535C40.2998 32.4881 39.9459 33.134 39.3392 33.2966L33.1157 34.9643C32.509 35.1269 31.8796 34.7444 31.7095 34.1098Z" fill="white"/>
</svg>
