<svg width="51" height="50" viewBox="0 0 51 50" fill="none" xmlns="http://www.w3.org/2000/svg">
<rect x="0.5" width="50" height="50" rx="12" fill="white" fill-opacity="0.1"/>
<path d="M24.2654 22.297C24.2631 22.303 24.2607 22.3089 24.2582 22.3148L21.9929 27.573L21.9928 27.5733C21.9112 27.7622 21.8105 27.9426 21.691 28.1111L20.1656 30.2708L20.1654 30.2711C20.0317 30.4601 19.932 30.6728 19.8714 30.899C19.8461 30.9933 19.8044 31.0809 19.7496 31.1584C20.4349 31.5113 20.7794 32.3217 20.5734 33.0904L20.2656 34.2392C20.0296 35.1199 19.1407 35.6867 18.2471 35.4472L12.0236 33.7796C11.1299 33.5401 10.6435 32.6048 10.8795 31.7241L11.1873 30.5753C11.3878 29.8267 12.0601 29.305 12.806 29.3123C12.7995 29.2552 12.7989 29.1974 12.8044 29.14L12.8044 29.1396C12.8381 28.7935 12.7792 28.4464 12.6341 28.1374C12.6341 28.1374 12.6341 28.1374 12.6341 28.1373L10.6641 23.946C10.2641 23.1971 10.5231 22.2464 11.2498 21.8042L11.2501 21.804C11.997 21.3502 12.9517 21.6064 13.372 22.3724L13.3722 22.3727L13.4891 22.586L14.3395 17.6936C14.3404 17.6879 14.3415 17.6823 14.3427 17.6766C14.5254 16.806 15.3862 16.2191 16.2628 16.454C16.6977 16.5705 17.0316 16.8632 17.2208 17.2342L17.2965 16.9515C17.5176 16.1263 18.3682 15.5489 19.2328 15.7989L24.2654 22.297ZM24.2654 22.297C24.616 21.4263 24.1695 20.4043 23.2408 20.1554C22.9105 20.0669 22.5769 20.0948 22.2802 20.2138M24.2654 22.297L22.2802 20.2138M22.2802 20.2138L22.4859 19.6551C22.488 19.6492 22.4901 19.6433 22.492 19.6373C22.7673 18.7926 22.3156 17.8556 21.4397 17.6209C21.0236 17.5094 20.6068 17.5838 20.2655 17.7891L20.2824 17.7263C20.5015 16.9085 20.0583 16.0375 19.233 15.799L22.2802 20.2138Z" stroke="white" stroke-opacity="0.5" stroke-linejoin="round"/>
<path d="M27.2268 22.297C27.2291 22.303 27.2315 22.3089 27.234 22.3148L29.4993 27.573L29.4994 27.5733C29.581 27.7622 29.6817 27.9426 29.8012 28.1111L31.3266 30.2708L31.3268 30.2711C31.4605 30.4601 31.5602 30.6728 31.6208 30.899C31.6461 30.9933 31.6878 31.0809 31.7425 31.1584C31.0573 31.5113 30.7128 32.3217 30.9188 33.0904L31.2266 34.2392C31.4626 35.1199 32.3514 35.6867 33.2451 35.4472L39.4686 33.7796C40.3623 33.5401 40.8487 32.6048 40.6127 31.7241L40.3049 30.5753C40.1044 29.8267 39.4321 29.305 38.6861 29.3123C38.6927 29.2552 38.6933 29.1974 38.6878 29.14L38.6878 29.1396C38.6541 28.7935 38.7129 28.4464 38.8581 28.1374C38.8581 28.1374 38.8581 28.1374 38.8581 28.1373L40.8281 23.946C41.2281 23.1971 40.969 22.2464 40.2424 21.8042L40.2421 21.804C39.4952 21.3502 38.5405 21.6064 38.1201 22.3724L38.12 22.3727L38.0031 22.586L37.1527 17.6936C37.1517 17.6879 37.1507 17.6823 37.1495 17.6766C36.9668 16.806 36.106 16.2191 35.2294 16.454C34.7944 16.5705 34.4606 16.8632 34.2714 17.2342L34.1957 16.9515C33.9746 16.1263 33.124 15.5489 32.2594 15.7989L27.2268 22.297ZM27.2268 22.297C26.8762 21.4263 27.3227 20.4043 28.2514 20.1554C28.5817 20.0669 28.9153 20.0948 29.212 20.2138M27.2268 22.297L29.212 20.2138M29.212 20.2138L29.0063 19.6551C29.0042 19.6492 29.0021 19.6433 29.0002 19.6373C28.7249 18.7926 29.1766 17.8556 30.0524 17.6209C30.4686 17.5094 30.8854 17.5838 31.2267 17.7891L31.2098 17.7263C30.9907 16.9085 31.4339 16.0375 32.2592 15.799L29.212 20.2138Z" stroke="white" stroke-opacity="0.5" stroke-linejoin="round"/>
</svg>
