<svg width="51" height="50" viewBox="0 0 51 50" fill="none" xmlns="http://www.w3.org/2000/svg">
<rect x="0.5" width="50" height="50" rx="12" fill="#6DDD63"/>
<path d="M17.0527 15H34.9465V16.9973H17.0527V15Z" fill="white"/>
<path d="M25.5098 29.2089L23.9914 35.1306C20.7562 35.035 17.5282 34.7719 14.3203 34.3422L17.0009 17.7566H23.4658V27.1941C23.4658 27.73 23.6787 28.2439 24.0576 28.6229C24.4366 29.0018 24.9505 29.2147 25.4864 29.2147L25.5098 29.2089Z" fill="white"/>
<path d="M25.6205 17.7566V28.4555H25.4861C25.1556 28.4494 24.8408 28.3138 24.6092 28.0779C24.3777 27.842 24.248 27.5246 24.248 27.1941V17.7566H25.6205Z" fill="white"/>
<path d="M37.6813 34.3481C34.4811 34.8328 31.2522 35.104 28.0161 35.1598L26.3809 28.7884V17.7566H35.0066L37.6813 34.3481Z" fill="white"/>
</svg>
