<svg width="51" height="50" viewBox="0 0 51 50" fill="none" xmlns="http://www.w3.org/2000/svg">
<rect x="0.5" width="50" height="50" rx="12" fill="white" fill-opacity="0.1"/>
<path fill-rule="evenodd" clip-rule="evenodd" d="M17.0527 14C16.5005 14 16.0527 14.4477 16.0527 15V16.9973C16.0527 17.108 16.0707 17.2145 16.104 17.3141C16.0608 17.4015 16.0299 17.4965 16.0137 17.597L13.3331 34.1827C13.2901 34.4491 13.3565 34.7217 13.5175 34.9384C13.6784 35.1551 13.92 35.2976 14.1876 35.3334C17.4297 35.7676 20.6922 36.0336 23.9618 36.1302C24.4293 36.144 24.8439 35.832 24.96 35.379L25.9995 31.3251L27.0475 35.4084C27.1625 35.8569 27.5704 36.1677 28.0333 36.1597C31.3139 36.1031 34.587 35.8282 37.8311 35.3368C38.0949 35.2968 38.3319 35.153 38.4891 34.9375C38.6464 34.7219 38.711 34.4524 38.6685 34.1889L35.9938 17.5974C35.977 17.493 35.9443 17.3945 35.8986 17.3042C35.9297 17.2075 35.9465 17.1044 35.9465 16.9973V15C35.9465 14.4477 35.4988 14 34.9465 14H17.0527ZM26.5072 29.2807C26.5149 29.1746 26.5055 29.0687 26.48 28.9668C26.5692 28.8172 26.6205 28.6423 26.6205 28.4555V17.9973H34.9465C34.9796 17.9973 35.0123 17.9957 35.0446 17.9925L37.5221 33.3608L37.6813 34.3481C37.3516 34.398 37.0217 34.4457 36.6914 34.4911C33.8158 34.8864 30.9189 35.1098 28.0161 35.1598L26.5072 29.2807ZM34.9465 16.7566V16V15.9973V15H33.9465H18.0527H17.0527V15.9973V16V16.7566H23.4658C23.6046 16.7566 23.7368 16.7849 23.8569 16.836C23.9771 16.7849 24.1093 16.7566 24.2481 16.7566H25.6205C25.7551 16.7566 25.8834 16.7832 26.0007 16.8314C26.1179 16.7832 26.2463 16.7566 26.3809 16.7566H34.9465ZM25.3809 17.9973H24.4658V27.1941C24.4658 27.4647 24.5733 27.7244 24.7647 27.9158C24.9311 28.0821 25.149 28.1851 25.3809 28.2092V17.9973ZM23.2481 27.1939V17.9973H17.0527C17.0224 17.9973 16.9923 17.9959 16.9626 17.9933L14.4799 33.3547L14.3203 34.3422C14.6509 34.3865 14.9817 34.429 15.3127 34.4698C18.1936 34.8243 21.0896 35.0449 23.9914 35.1306L25.2542 30.2058L25.4467 29.4548C24.8619 29.4386 24.3057 29.1963 23.8955 28.7783C23.4805 28.3555 23.248 27.7866 23.2481 27.1941V27.1939Z" fill="white" fill-opacity="0.5"/>
</svg>
