<svg width="51" height="50" viewBox="0 0 51 50" fill="none" xmlns="http://www.w3.org/2000/svg">
<rect x="0.5" width="50" height="50" rx="12" fill="#6DDD63"/>
<path d="M37.5968 25.8142L32.5035 23.3123L28.8173 26.0769C28.6876 26.1741 28.5358 26.2211 28.3852 26.2211C28.1659 26.2211 27.9494 26.1216 27.8077 25.9326C27.5687 25.614 27.6333 25.162 27.952 24.923L31.051 22.5987L29.2111 21.6949L25.9327 24.1538C25.803 24.251 25.6512 24.298 25.5006 24.298C25.2813 24.298 25.0648 24.1985 24.9231 24.0095C24.6841 23.6909 24.7487 23.2389 25.0673 22.9999L27.7587 20.9814L23.8949 19.0834C23.7959 19.0348 23.6872 19.0095 23.577 19.0095H23.0962C21.9033 19.0095 20.9327 19.98 20.9327 21.173C20.9327 21.5707 20.6092 21.8941 20.2116 21.8941H18.2885C17.8908 21.8941 17.5673 21.5707 17.5673 21.173C17.5673 19.9801 16.5968 19.0095 15.4039 19.0095H15.1635C13.9705 19.0096 13 19.9801 13 21.173V27.6634H38V26.4615C38 26.1865 37.8436 25.9355 37.5968 25.8142Z" fill="white"/>
<path d="M13 29.1057V31.2692C13 31.6675 13.3229 31.9903 13.7211 31.9903H37.2789C37.6771 31.9903 38 31.6674 38 31.2692V29.1057H13Z" fill="white"/>
</svg>
