<svg width="51" height="50" viewBox="0 0 51 50" fill="none" xmlns="http://www.w3.org/2000/svg">
<rect x="0.5" width="50" height="50" rx="12" fill="white" fill-opacity="0.1"/>
<path fill-rule="evenodd" clip-rule="evenodd" d="M38.0378 24.9167L38.0377 24.9167L32.9556 22.4202L32.9444 22.4147L32.394 22.1444L31.4919 21.7012L29.6634 20.803L29.652 20.7974L29.1017 20.527L28.1996 20.0839L24.3361 18.186L24.3358 18.1858C24.0994 18.0697 23.8397 18.0095 23.577 18.0095H23.0962C21.445 18.0095 20.0864 19.2791 19.9449 20.8941H18.5552C18.4137 19.2792 17.0552 18.0095 15.4039 18.0095H15.1635H15.1634C13.4182 18.0096 12 19.4278 12 21.173V27.6634V28.1057V28.6634V29.1057V31.2692C12 32.2198 12.7707 32.9903 13.7211 32.9903H37.2789C38.2295 32.9903 39 32.2197 39 31.2692V29.1057V28.6634V28.1057V27.6634V26.4615C39 25.805 38.6266 25.2061 38.0378 24.9167ZM31.051 22.5987L30.0439 22.104L29.2111 21.6949L25.9327 24.1538C25.803 24.251 25.6512 24.298 25.5006 24.298C25.2813 24.298 25.0648 24.1985 24.9231 24.0095C24.6841 23.6909 24.7487 23.2389 25.0673 22.9999L26.8611 21.6546L27.7587 20.9814L26.7516 20.4867L23.8949 19.0834C23.7959 19.0348 23.6872 19.0095 23.577 19.0095H23.0962C21.9033 19.0095 20.9327 19.98 20.9327 21.173C20.9327 21.5707 20.6092 21.8941 20.2116 21.8941H18.2885C17.8908 21.8941 17.5673 21.5707 17.5673 21.173C17.5673 19.9801 16.5968 19.0095 15.4039 19.0095H15.1635C13.9705 19.0096 13 19.9801 13 21.173V26.6634V27.6634H14H37H38V26.6634V26.4615C38 26.1865 37.8436 25.9355 37.5968 25.8142L32.5035 23.3123L28.8173 26.0769C28.6876 26.1741 28.5358 26.2211 28.3852 26.2211C28.1659 26.2211 27.9494 26.1216 27.8077 25.9326C27.5687 25.614 27.6333 25.162 27.952 24.923L30.1534 23.2719L31.051 22.5987ZM13 31.2692V30.1057V29.1057H14H37H38V30.1057V31.2692C38 31.6674 37.6771 31.9903 37.2789 31.9903H13.7211C13.3229 31.9903 13 31.6675 13 31.2692Z" fill="white" fill-opacity="0.5"/>
</svg>
