<svg width="51" height="50" viewBox="0 0 51 50" fill="none" xmlns="http://www.w3.org/2000/svg">
<rect x="0.5" width="50" height="50" rx="12" fill="#6DDD63"/>
<path d="M30.9284 14.6149L27.5566 14L31.3501 18.4083L30.9284 14.6149Z" fill="white"/>
<path d="M32.9303 21.6667L28.0957 34.5621L37.7664 21.6667H32.9303Z" fill="white"/>
<path d="M32.6191 15.9182L33.0868 20.1333H37.7665L32.6191 15.9182Z" fill="white"/>
<path d="M18.6738 15.3156L19.1369 19.0309L23.3168 14L18.6738 15.3156Z" fill="white"/>
<path d="M25.5011 14L20.2188 20.1333H30.7834L25.5011 14Z" fill="white"/>
<path d="M17.2666 16.418L13.2324 20.1332H17.7312L17.2666 16.418Z" fill="white"/>
<path d="M19.707 21.6667L25.5 37.0001L31.2944 21.6667H19.707Z" fill="white"/>
<path d="M18.067 21.6667H13.2324L22.9032 34.5605L18.067 21.6667Z" fill="white"/>
</svg>
