<svg width="51" height="50" viewBox="0 0 51 50" fill="none" xmlns="http://www.w3.org/2000/svg">
<rect x="0.5" width="50" height="50" rx="12" fill="white" fill-opacity="0.1"/>
<path fill-rule="evenodd" clip-rule="evenodd" d="M23.7014 14.3196C23.8414 14.151 23.8554 13.911 23.7359 13.7274C23.6164 13.5437 23.3913 13.4592 23.1805 13.519L18.5375 14.8346C18.3 14.9019 18.1472 15.1325 18.1777 15.3775L18.6408 19.0927C18.6654 19.2905 18.8052 19.4548 18.9965 19.5108C19.1878 19.5668 19.3941 19.5038 19.5215 19.3504L23.7014 14.3196ZM19.4903 17.8232L19.2231 15.6797L21.9018 14.9207L19.4903 17.8232ZM27.6464 13.5081C27.4379 13.4701 27.2282 13.5676 27.1228 13.7515C27.0175 13.9353 27.0395 14.1656 27.1777 14.3262L30.9711 18.7345C31.1141 18.9007 31.3487 18.9543 31.5497 18.8668C31.7507 18.7793 31.8713 18.571 31.8471 18.3531L31.4254 14.5597C31.401 14.3401 31.2355 14.1626 31.0182 14.123L27.6464 13.5081ZM30.6746 16.8568L28.8578 14.7456L30.4726 15.04L30.6746 16.8568ZM32.9303 21.1668C32.7219 21.1668 32.5353 21.2961 32.4621 21.4913L27.6275 34.3866C27.5402 34.6195 27.6374 34.8812 27.8555 35.0007C28.0737 35.1201 28.3465 35.0611 28.4957 34.8621L38.1665 21.9668C38.2801 21.8153 38.2984 21.6126 38.2137 21.4432C38.129 21.2738 37.9558 21.1668 37.7665 21.1668H32.9303ZM29.7883 31.4718L33.2769 22.1668H36.7665L29.7883 31.4718ZM32.3805 15.4789C32.5591 15.3819 32.7787 15.4026 32.9359 15.5314L38.0833 19.7465C38.2468 19.8804 38.3085 20.1026 38.2374 20.3016C38.1663 20.5006 37.9779 20.6334 37.7666 20.6334H33.0868C32.832 20.6334 32.618 20.4418 32.5899 20.1885L32.1222 15.9734C32.0998 15.7714 32.2019 15.5759 32.3805 15.4789ZM33.2514 17.0822L33.5344 19.6334H36.3668L33.2514 17.0822ZM25.5011 13.5C25.6467 13.5 25.785 13.5635 25.88 13.6737L31.1623 19.8071C31.2899 19.9552 31.3194 20.1641 31.2379 20.3418C31.1565 20.5195 30.9789 20.6334 30.7834 20.6334H20.2188C20.0233 20.6334 19.8457 20.5195 19.7643 20.3418C19.6828 20.1641 19.7123 19.9552 19.8399 19.8071L25.1222 13.6737C25.2172 13.5635 25.3556 13.5 25.5011 13.5ZM21.3093 19.6334H29.6929L25.5011 14.7662L21.3093 19.6334ZM17.7628 16.356C17.7395 16.1702 17.6144 16.0129 17.4386 15.9485C17.2628 15.8841 17.0657 15.9234 16.9279 16.0502L12.8937 19.7655C12.7422 19.905 12.6918 20.1232 12.7667 20.3151C12.8416 20.507 13.0265 20.6333 13.2324 20.6333H17.7312C17.8747 20.6333 18.0112 20.5717 18.1061 20.4642C18.201 20.3566 18.2452 20.2135 18.2274 20.0712L17.7628 16.356ZM17.1648 19.6333H14.5134L16.891 17.4437L17.1648 19.6333ZM19.2957 21.3825C19.3891 21.2474 19.5428 21.1668 19.7071 21.1668H31.2945C31.4587 21.1668 31.6124 21.2474 31.7058 21.3825C31.7991 21.5176 31.8202 21.6899 31.7622 21.8435L25.9677 37.1769C25.8942 37.3714 25.7079 37.5001 25.5 37.5001C25.292 37.5001 25.1058 37.3714 25.0323 37.1768L19.2393 21.8435C19.1813 21.6899 19.2024 21.5176 19.2957 21.3825ZM20.4304 22.1668L25.5 35.5855L30.571 22.1668H20.4304ZM13.2324 21.1668C13.0431 21.1668 12.8699 21.2738 12.7852 21.4432C12.7005 21.6126 12.7188 21.8153 12.8324 21.9668L22.5032 34.8606C22.6524 35.0596 22.9253 35.1186 23.1434 34.9991C23.3616 34.8796 23.4587 34.6179 23.3713 34.385L18.5352 21.4912C18.462 21.2961 18.2755 21.1668 18.067 21.1668H13.2324ZM21.2098 31.4695L14.2325 22.1668H17.7206L21.2098 31.4695Z" fill="white" fill-opacity="0.5"/>
</svg>
