<svg width="49" height="48" viewBox="0 0 49 48" fill="none" xmlns="http://www.w3.org/2000/svg">
<path d="M42.9508 0.697322C46.1511 -1.62949 50.1295 2.34893 47.8027 5.54925L36.4034 21.2279C35.2018 22.8807 35.2018 25.1193 36.4034 26.7721L47.8027 42.4508C50.1295 45.6511 46.1511 49.6295 42.9508 47.3027L27.2721 35.9034C25.6193 34.7018 23.3807 34.7018 21.7279 35.9034L6.04925 47.3027C2.84893 49.6295 -1.12949 45.6511 1.19732 42.4508L12.5966 26.7721C13.7982 25.1193 13.7982 22.8807 12.5966 21.2279L1.19732 5.54925C-1.12949 2.34893 2.84893 -1.62949 6.04925 0.697322L21.7279 12.0966C23.3807 13.2982 25.6193 13.2982 27.2721 12.0966L42.9508 0.697322Z" fill="#68C2FF"/>
</svg>
